# Blender 3.4.1
# www.blender.org
mtllib m_bottle.mtl
o Cube
v 0.062820 -0.000000 -0.152933
v 0.154701 -0.000000 0.106757
v 0.044420 -0.044420 -0.152933
v 0.109390 -0.109390 0.106757
v -0.000000 -0.062820 -0.152933
v -0.000000 -0.154701 0.106757
v -0.044420 -0.044420 -0.152933
v -0.109390 -0.109390 0.106757
v -0.062820 -0.000000 -0.152933
v -0.154701 -0.000000 0.106757
v -0.044420 0.044420 -0.152933
v -0.109390 0.109390 0.106757
v -0.000000 0.062820 -0.152933
v -0.000000 0.154701 0.106757
v 0.044420 0.044420 -0.152933
v 0.109390 0.109390 0.106757
v 0.154701 -0.000000 -0.100251
v 0.109390 -0.109390 -0.100251
v -0.000000 -0.154701 -0.100251
v -0.109390 -0.109390 -0.100251
v -0.154701 -0.000000 -0.100251
v -0.109390 0.109390 -0.100251
v -0.000000 0.154701 -0.100251
v 0.109390 0.109390 -0.100251
v 0.081744 -0.081744 0.195748
v 0.115603 0.000000 0.195748
v -0.000000 -0.115603 0.195748
v -0.081744 -0.081744 0.195748
v -0.115603 0.000000 0.195748
v -0.081744 0.081744 0.195748
v -0.000000 0.115603 0.195748
v 0.081744 0.081744 0.195748
v 0.088235 -0.088235 0.273660
v 0.124782 0.000000 0.273660
v -0.000000 -0.124782 0.273660
v -0.088235 -0.088235 0.273660
v -0.124782 0.000000 0.273660
v -0.088235 0.088235 0.273660
v -0.000000 0.124782 0.273660
v 0.088235 0.088235 0.273660
v -0.080428 0.080428 0.260034
v -0.000000 0.113743 0.260034
v -0.080428 -0.080428 0.260034
v -0.113743 0.000000 0.260034
v 0.080428 -0.080428 0.260034
v -0.000000 -0.113743 0.260034
v 0.080428 0.080428 0.260034
v 0.113743 0.000000 0.260034
v 0.088235 -0.088235 0.292647
v 0.124782 0.000000 0.292647
v -0.000000 -0.124782 0.292647
v -0.088235 -0.088235 0.292647
v -0.124782 0.000000 0.292647
v -0.088235 0.088235 0.292647
v -0.000000 0.124782 0.292647
v 0.088235 0.088235 0.292647
vn 0.9239 -0.3827 -0.0000
vn 0.3827 -0.9239 -0.0000
vn -0.3827 -0.9239 -0.0000
vn -0.9239 -0.3827 -0.0000
vn -0.9239 0.3827 -0.0000
vn -0.3827 0.9239 -0.0000
vn -0.8560 -0.3546 0.3761
vn 0.3827 0.9239 -0.0000
vn 0.9239 0.3827 -0.0000
vn -0.0000 -0.0000 -1.0000
vn 0.4872 0.2018 -0.8497
vn 0.2018 0.4872 -0.8497
vn -0.2018 0.4872 -0.8497
vn -0.4872 0.2018 -0.8497
vn -0.4872 -0.2018 -0.8497
vn -0.2018 -0.4872 -0.8497
vn 0.2018 -0.4872 -0.8497
vn 0.4872 -0.2018 -0.8497
vn -0.3064 0.7396 -0.5992
vn 0.3546 0.8560 0.3761
vn 0.3546 -0.8560 0.3761
vn -0.8560 0.3546 0.3761
vn 0.8560 0.3546 0.3761
vn 0.8560 -0.3546 0.3761
vn -0.3546 -0.8560 0.3761
vn -0.3546 0.8560 0.3761
vn -0.7396 -0.3064 -0.5992
vn 0.3064 -0.7396 -0.5992
vn 0.3064 0.7396 -0.5992
vn -0.7396 0.3064 -0.5992
vn -0.3064 -0.7396 -0.5992
vn 0.7396 -0.3064 -0.5992
vn 0.7396 0.3064 -0.5992
vn 0.9235 0.3825 0.0267
vn 0.9235 -0.3825 0.0267
vn -0.3825 -0.9235 0.0267
vn -0.9235 0.3825 0.0267
vn 0.3825 0.9235 0.0267
vn 0.3825 -0.9235 0.0267
vn -0.9235 -0.3825 0.0267
vn -0.3825 0.9235 0.0267
vn -0.0000 -0.0000 1.0000
vt 0.109418 0.638724
vt 0.246887 0.238101
vt 0.149282 0.598860
vt 0.345057 0.228081
vt 0.719765 0.238101
vt 0.205658 0.598860
vt 0.858598 0.238101
vt 0.245522 0.638724
vt 0.956768 0.228081
vt 0.364824 0.228081
vt 0.245522 0.695101
vt 0.462994 0.238101
vt 0.205658 0.734965
vt 0.601827 0.238101
vt 0.149282 0.734965
vt 0.009884 0.228081
vt 0.699997 0.228081
vt 0.109418 0.695101
vt 0.108054 0.238101
vt 0.246887 0.479558
vt 0.009884 0.597496
vt 0.719765 0.479558
vt 0.345057 0.469539
vt 0.108054 0.499326
vt 0.858598 0.479558
vt 0.246887 0.499326
vt 0.364824 0.469539
vt 0.956768 0.469539
vt 0.345057 0.597496
vt 0.462994 0.479558
vt 0.345057 0.736329
vt 0.601827 0.479558
vt 0.246887 0.834499
vt 0.009884 0.469539
vt 0.699997 0.469539
vt 0.108054 0.834499
vt 0.108054 0.479558
vt 0.009884 0.736329
vt 0.302702 0.122488
vt 0.737309 0.129976
vt 0.229343 0.129976
vt 0.841054 0.129976
vt 0.914413 0.122488
vt 0.407179 0.122488
vt 0.480538 0.129976
vt 0.584283 0.129976
vt 0.657643 0.122488
vt 0.052238 0.122488
vt 0.125597 0.129976
vt 0.544488 0.499326
vt 0.312646 0.032031
vt 0.733190 0.040112
vt 0.544488 0.611309
vt 0.233462 0.040112
vt 0.690844 0.706244
vt 0.845173 0.040112
vt 0.924357 0.032031
vt 0.647990 0.602785
vt 0.397235 0.032031
vt 0.690844 0.499326
vt 0.476419 0.040112
vt 0.619069 0.706244
vt 0.588402 0.040112
vt 0.667586 0.032031
vt 0.576215 0.602785
vt 0.042295 0.032031
vt 0.619069 0.499326
vt 0.121479 0.040112
vt 0.628222 0.697091
vt 0.583449 0.054786
vt 0.589159 0.602785
vt 0.054254 0.047419
vt 0.655627 0.047419
vt 0.660934 0.602785
vt 0.912398 0.047419
vt 0.409194 0.047419
vt 0.699997 0.508479
vt 0.481373 0.054786
vt 0.556447 0.504280
vt 0.300687 0.047419
vt 0.738143 0.054786
vt 0.699997 0.697091
vt 0.840219 0.054786
vt 0.628222 0.508479
vt 0.126432 0.054786
vt 0.556447 0.606356
vt 0.228508 0.054786
vt 0.719765 0.690493
vt 0.733190 0.017966
vt 0.312646 0.009884
vt 0.719765 0.578510
vt 0.233462 0.017966
vt 0.798949 0.769677
vt 0.845173 0.017966
vt 0.910932 0.769677
vt 0.397235 0.009884
vt 0.924357 0.009884
vt 0.990116 0.690493
vt 0.476419 0.017966
vt 0.990116 0.578510
vt 0.588402 0.017966
vt 0.910932 0.499326
vt 0.667586 0.009884
vt 0.042295 0.009884
vt 0.798949 0.499326
vt 0.121479 0.017966
s 0
usemtl Material
f 2/2/1 18/23/1 17/20/1
f 4/5/2 19/25/2 18/22/2
f 6/7/3 20/28/3 19/25/3
f 8/10/4 21/30/4 20/27/4
f 10/12/5 22/32/5 21/30/5
f 12/14/6 23/35/6 22/32/6
f 10/12/7 28/44/7 29/45/7
f 14/16/8 24/37/8 23/34/8
f 16/19/9 17/20/9 24/37/9
f 7/8/10 11/13/10 15/18/10
f 24/38/11 1/1/11 15/18/11
f 23/36/12 15/18/12 13/15/12
f 11/13/13 23/36/13 13/15/13
f 21/31/14 11/13/14 9/11/14
f 7/8/15 21/31/15 9/11/15
f 19/26/16 7/8/16 5/6/16
f 3/3/17 19/26/17 5/6/17
f 17/21/18 3/3/18 1/1/18
f 41/69/19 39/65/19 42/71/19
f 14/16/20 32/49/20 16/19/20
f 6/7/21 25/40/21 27/42/21
f 10/12/22 30/46/22 12/14/22
f 16/19/23 26/41/23 2/2/23
f 2/2/24 25/39/24 4/4/24
f 6/7/25 28/43/25 8/9/25
f 14/17/26 30/46/26 31/47/26
f 40/68/9 50/92/9 34/54/9
f 43/74/27 37/60/27 44/77/27
f 45/81/28 35/56/28 46/83/28
f 42/71/29 40/67/29 47/84/29
f 44/78/30 38/63/30 41/70/30
f 43/74/31 35/55/31 36/58/31
f 45/79/32 34/53/32 33/50/32
f 47/85/33 34/54/33 48/87/33
f 32/49/34 48/87/34 26/41/34
f 26/41/35 45/80/35 25/39/35
f 27/42/36 43/75/36 28/43/36
f 29/45/37 41/70/37 30/46/37
f 31/48/38 47/85/38 32/49/38
f 25/40/39 46/83/39 27/42/39
f 28/44/40 44/78/40 29/45/40
f 30/46/41 42/73/41 31/47/41
f 55/102/42 53/98/42 51/93/42
f 38/63/6 55/103/6 39/64/6
f 36/59/4 53/99/4 37/61/4
f 33/52/2 51/94/2 35/56/2
f 39/66/8 56/106/8 40/68/8
f 37/61/5 54/101/5 38/63/5
f 35/56/3 52/97/3 36/57/3
f 34/54/1 49/90/1 33/51/1
f 2/2/1 4/4/1 18/23/1
f 4/5/2 6/7/2 19/25/2
f 6/7/3 8/9/3 20/28/3
f 8/10/4 10/12/4 21/30/4
f 10/12/5 12/14/5 22/32/5
f 12/14/6 14/17/6 23/35/6
f 10/12/7 8/10/7 28/44/7
f 14/16/8 16/19/8 24/37/8
f 16/19/9 2/2/9 17/20/9
f 15/18/10 1/1/10 3/3/10
f 3/3/10 5/6/10 7/8/10
f 7/8/10 9/11/10 11/13/10
f 11/13/10 13/15/10 15/18/10
f 15/18/10 3/3/10 7/8/10
f 24/38/11 17/21/11 1/1/11
f 23/36/12 24/38/12 15/18/12
f 11/13/13 22/33/13 23/36/13
f 21/31/14 22/33/14 11/13/14
f 7/8/15 20/29/15 21/31/15
f 19/26/16 20/29/16 7/8/16
f 3/3/17 18/24/17 19/26/17
f 17/21/18 18/24/18 3/3/18
f 41/69/19 38/62/19 39/65/19
f 14/16/20 31/48/20 32/49/20
f 6/7/21 4/5/21 25/40/21
f 10/12/22 29/45/22 30/46/22
f 16/19/23 32/49/23 26/41/23
f 2/2/24 26/41/24 25/39/24
f 6/7/25 27/42/25 28/43/25
f 14/17/26 12/14/26 30/46/26
f 40/68/9 56/106/9 50/92/9
f 43/74/27 36/58/27 37/60/27
f 45/81/28 33/52/28 35/56/28
f 42/71/29 39/65/29 40/67/29
f 44/78/30 37/61/30 38/63/30
f 43/74/31 46/82/31 35/55/31
f 45/79/32 48/86/32 34/53/32
f 47/85/33 40/68/33 34/54/33
f 32/49/34 47/85/34 48/87/34
f 26/41/35 48/87/35 45/80/35
f 27/42/36 46/83/36 43/75/36
f 29/45/37 44/78/37 41/70/37
f 31/48/38 42/72/38 47/85/38
f 25/40/39 45/81/39 46/83/39
f 28/44/40 43/76/40 44/78/40
f 30/46/41 41/70/41 42/73/41
f 51/93/42 49/88/42 50/91/42
f 50/91/42 56/105/42 55/102/42
f 55/102/42 54/100/42 53/98/42
f 53/98/42 52/95/42 51/93/42
f 51/93/42 50/91/42 55/102/42
f 38/63/6 54/101/6 55/103/6
f 36/59/4 52/96/4 53/99/4
f 33/52/2 49/89/2 51/94/2
f 39/66/8 55/104/8 56/106/8
f 37/61/5 53/99/5 54/101/5
f 35/56/3 51/94/3 52/97/3
f 34/54/1 50/92/1 49/90/1
