# Blender 3.4.1
# www.blender.org
mtllib m_pylon.mtl
o Cube
v 0.213145 0.000000 -0.120110
v 0.524894 -0.000000 0.850287
v 0.150716 -0.150716 -0.120110
v 0.371156 -0.371156 0.850287
v 0.000000 -0.213145 -0.120110
v 0.000000 -0.524894 0.850287
v -0.150716 -0.150716 -0.120110
v -0.371156 -0.371156 0.850287
v -0.213145 0.000000 -0.120110
v -0.524894 -0.000000 0.850287
v -0.150716 0.150716 -0.120110
v -0.371156 0.371156 0.850287
v 0.000000 0.213145 -0.120110
v 0.000000 0.524894 0.850287
v 0.150716 0.150716 -0.120110
v 0.371156 0.371156 0.850287
v 0.524894 -0.000000 0.076751
v 0.371156 -0.371156 0.076751
v 0.000000 -0.524894 0.076751
v -0.371156 -0.371156 0.076751
v -0.524894 -0.000000 0.076751
v -0.371156 0.371156 0.076751
v 0.000000 0.524894 0.076751
v 0.371156 0.371156 0.076751
v 0.031817 -0.031817 1.773719
v 0.044996 0.000000 1.773719
v 0.000000 -0.044996 1.773719
v -0.031817 -0.031817 1.773719
v -0.044996 0.000000 1.773719
v -0.031817 0.031817 1.773719
v 0.000000 0.044996 1.773719
v 0.031817 0.031817 1.773719
vn 0.9239 -0.3827 -0.0000
vn 0.3827 -0.9239 -0.0000
vn -0.3827 -0.9239 -0.0000
vn -0.9239 -0.3827 -0.0000
vn -0.9239 0.3827 -0.0000
vn -0.3827 0.9239 -0.0000
vn -0.8329 -0.3450 0.4328
vn 0.3827 0.9239 -0.0000
vn 0.9239 0.3827 -0.0000
vn -0.0000 -0.0000 -1.0000
vn 0.5213 0.2159 -0.8256
vn 0.2159 0.5213 -0.8256
vn -0.2159 0.5213 -0.8256
vn -0.5213 0.2159 -0.8256
vn -0.5213 -0.2159 -0.8256
vn -0.2159 -0.5213 -0.8256
vn 0.2159 -0.5213 -0.8256
vn 0.5213 -0.2159 -0.8256
vn -0.0000 -0.0000 1.0000
vn 0.3450 0.8329 0.4328
vn 0.3450 -0.8329 0.4328
vn -0.8329 0.3450 0.4328
vn 0.8329 0.3450 0.4328
vn 0.8329 -0.3450 0.4328
vn -0.3450 -0.8329 0.4328
vn -0.3450 0.8329 0.4328
vt 0.106464 0.757673
vt 0.105131 0.348335
vt 0.145421 0.718716
vt 0.240805 0.348335
vt 0.259195 0.327042
vt 0.200514 0.718716
vt 0.355131 0.348335
vt 0.239471 0.757673
vt 0.490805 0.348335
vt 0.509195 0.327042
vt 0.239471 0.812766
vt 0.605131 0.348335
vt 0.200514 0.851723
vt 0.740805 0.348335
vt 0.759196 0.327042
vt 0.145421 0.851723
vt 0.855131 0.348335
vt 0.106464 0.812766
vt 0.990805 0.348335
vt 0.009195 0.327042
vt 0.105131 0.603056
vt 0.009195 0.717383
vt 0.259195 0.581764
vt 0.240805 0.603056
vt 0.105131 0.621447
vt 0.355131 0.603056
vt 0.240805 0.621447
vt 0.509195 0.581764
vt 0.490805 0.603056
vt 0.336740 0.717383
vt 0.605131 0.603056
vt 0.336740 0.853056
vt 0.759196 0.581764
vt 0.740805 0.603056
vt 0.240805 0.948992
vt 0.855131 0.603056
vt 0.105131 0.948992
vt 0.009195 0.581764
vt 0.990805 0.603056
vt 0.009195 0.853056
vt 0.374986 0.649526
vt 0.408929 0.009196
vt 0.178783 0.011021
vt 0.363355 0.649526
vt 0.167153 0.011021
vt 0.383210 0.641302
vt 0.417153 0.011021
vt 0.658929 0.009196
vt 0.383210 0.629671
vt 0.428783 0.011021
vt 0.374986 0.621447
vt 0.667153 0.011021
vt 0.363355 0.621447
vt 0.678783 0.011021
vt 0.908929 0.009196
vt 0.355131 0.629671
vt 0.917153 0.011021
vt 0.355131 0.641302
vt 0.928783 0.011021
vt 0.158929 0.009196
s 0
usemtl Material
f 2/2/1 18/24/1 17/21/1
f 4/5/2 19/26/2 18/23/2
f 6/7/3 20/29/3 19/26/3
f 8/10/4 21/31/4 20/28/4
f 10/12/5 22/34/5 21/31/5
f 12/15/6 23/36/6 22/33/6
f 8/10/7 29/52/7 10/12/7
f 14/17/8 24/39/8 23/36/8
f 16/20/9 17/21/9 24/38/9
f 7/8/10 11/13/10 15/18/10
f 24/40/11 1/1/11 15/18/11
f 23/37/12 15/18/12 13/16/12
f 22/35/13 13/16/13 11/13/13
f 21/32/14 11/13/14 9/11/14
f 20/30/15 9/11/15 7/8/15
f 5/6/16 20/30/16 7/8/16
f 18/25/17 5/6/17 3/3/17
f 17/22/18 3/3/18 1/1/18
f 31/56/19 29/51/19 27/46/19
f 14/17/20 32/59/20 16/19/20
f 4/5/21 27/47/21 6/7/21
f 10/12/22 30/54/22 12/14/22
f 16/20/23 26/45/23 2/2/23
f 2/2/24 25/43/24 4/4/24
f 6/7/25 28/50/25 8/9/25
f 12/15/26 31/57/26 14/17/26
f 2/2/1 4/4/1 18/24/1
f 4/5/2 6/7/2 19/26/2
f 6/7/3 8/9/3 20/29/3
f 8/10/4 10/12/4 21/31/4
f 10/12/5 12/14/5 22/34/5
f 12/15/6 14/17/6 23/36/6
f 8/10/7 28/48/7 29/52/7
f 14/17/8 16/19/8 24/39/8
f 16/20/9 2/2/9 17/21/9
f 15/18/10 1/1/10 3/3/10
f 3/3/10 5/6/10 7/8/10
f 7/8/10 9/11/10 11/13/10
f 11/13/10 13/16/10 15/18/10
f 15/18/10 3/3/10 7/8/10
f 24/40/11 17/22/11 1/1/11
f 23/37/12 24/40/12 15/18/12
f 22/35/13 23/37/13 13/16/13
f 21/32/14 22/35/14 11/13/14
f 20/30/15 21/32/15 9/11/15
f 5/6/16 19/27/16 20/30/16
f 18/25/17 19/27/17 5/6/17
f 17/22/18 18/25/18 3/3/18
f 27/46/19 25/41/19 26/44/19
f 26/44/19 32/58/19 31/56/19
f 31/56/19 30/53/19 29/51/19
f 29/51/19 28/49/19 27/46/19
f 27/46/19 26/44/19 31/56/19
f 14/17/20 31/57/20 32/59/20
f 4/5/21 25/42/21 27/47/21
f 10/12/22 29/52/22 30/54/22
f 16/20/23 32/60/23 26/45/23
f 2/2/24 26/45/24 25/43/24
f 6/7/25 27/47/25 28/50/25
f 12/15/26 30/55/26 31/57/26
