# Blender 3.4.1
# www.blender.org
mtllib m_shotgun.mtl
o shotgun
v 0.314424 0.040109 -0.056338
v 0.295014 0.024439 -0.056338
v 0.057435 0.040109 -0.056338
v 0.314424 -0.041375 -0.056338
v 0.314424 0.040109 0.037683
v 0.314424 -0.041375 0.037683
v 0.502465 0.040109 -0.024998
v 0.502465 -0.000633 -0.119018
v 0.209434 0.039326 0.100363
v 0.195331 0.037602 0.036116
v 0.069971 0.038542 0.036116
v 0.058541 0.034030 0.078819
v 0.057435 -0.033358 0.081140
v 0.251744 -0.041375 0.100363
v 0.057435 0.032405 -0.019431
v 0.057435 -0.003691 -0.051304
v 0.057435 -0.041375 -0.056338
v 0.057435 -0.033053 -0.016013
v 0.204128 -0.025705 -0.056338
v 0.194726 0.024439 -0.056338
v 0.276210 0.024439 -0.056338
v 0.213529 0.024439 -0.100214
v 0.288746 0.024439 -0.106482
v 0.194726 0.024439 -0.119018
v 0.213529 0.024439 -0.056338
v 0.276210 -0.025705 -0.100214
v 0.288746 -0.025705 -0.056338
v 0.204128 -0.025705 -0.106482
v 0.295014 -0.025705 -0.119018
v 0.502465 -0.041375 -0.024998
v -0.318647 0.017111 0.086835
v -0.318647 0.021982 0.039232
v -0.255967 0.021528 0.004998
v -0.255967 0.021528 0.012899
v -0.255967 0.018621 0.034983
v -0.255967 0.024624 -0.047202
v -0.255967 -0.039065 -0.030100
v -0.255967 -0.022794 0.004998
v -0.255967 -0.017935 0.033052
v -0.255967 -0.022794 0.012899
v -0.318647 -0.022773 0.040340
v -0.318647 -0.024047 0.081232
v -0.193287 -0.013598 0.033378
v -0.193287 -0.016374 0.083570
v -0.193287 0.026656 0.071142
v -0.255967 0.018198 0.015454
v -0.255967 0.009115 0.019216
v -0.255967 -0.000633 0.020500
v -0.255967 -0.010381 0.019216
v -0.255967 -0.019464 0.015454
v -0.287307 0.027252 0.016060
v -0.255967 -0.012726 0.012033
v -0.255967 0.007658 0.013780
v -0.287307 -0.037999 0.000282
v -0.255967 0.030313 0.000886
v -0.287307 0.003397 -0.063178
v -0.221493 -0.043882 -0.061039
v -0.221493 0.042616 -0.061039
v -0.221493 -0.045763 0.017311
v -0.177617 -0.045763 0.017311
v -0.133741 -0.045763 0.017311
v -0.099266 -0.047643 -0.064173
v -0.099266 -0.047643 0.029848
v -0.255967 -0.039360 0.029848
v -0.237163 0.045124 0.019102
v -0.099266 0.046377 0.029848
v -0.133741 0.042616 -0.061039
v -0.133741 0.044497 0.017311
v -0.177617 0.043691 -0.061039
v -0.177617 0.044497 0.017311
v -0.255967 -0.035919 -0.036225
v -0.255967 0.014990 -0.053293
v -0.255967 0.032255 -0.002549
v -0.099266 0.017277 0.019817
v -0.099266 0.030594 -0.047313
v -0.099266 0.002425 -0.051304
v -0.099266 -0.033342 -0.009269
v -0.133741 -0.043882 -0.061039
v -0.177617 -0.044957 -0.061039
vn -0.0000 -0.0000 -1.0000
vn -0.0075 1.0000 -0.0000
vn -0.0358 0.9992 -0.0190
vn 0.0075 0.9993 0.0368
vn -0.0000 0.9999 0.0169
vn -0.2146 0.9756 0.0456
vn -0.9987 0.0499 0.0104
vn -1.0000 -0.0000 -0.0000
vn -1.0000 0.0001 -0.0000
vn 1.0000 -0.0001 -0.0000
vn 1.0000 -0.0000 -0.0000
vn -0.0000 -0.0000 -0.0000
vn -0.3162 -0.0000 -0.9487
vn 0.0163 0.1642 0.9863
vn -0.0538 -0.0741 0.9958
vn 0.0073 -0.0961 0.9953
vn 0.0429 0.5579 -0.8288
vn -0.0186 0.7411 -0.6711
vn 0.0428 0.7533 -0.6562
vn 0.0411 -0.8450 -0.5332
vn -0.0304 -0.6949 -0.7184
vn 0.0324 -0.6786 -0.7338
vn 0.0540 0.9938 0.0971
vn -0.0692 0.9947 -0.0757
vn -0.0692 0.9803 0.1850
vn 0.0532 0.1550 0.9865
vn -0.0768 0.0150 0.9969
vn 0.0532 -0.1060 0.9929
vn 0.0101 0.0044 -0.9999
vn -0.1159 0.1674 -0.9790
vn 0.0101 0.2631 -0.9647
vn 0.0623 -0.9976 0.0291
vn -0.0641 -0.9891 -0.1329
vn 0.0623 -0.9711 -0.2306
vn -0.1898 -0.0115 0.9818
vn -0.3690 -0.1530 0.9168
vn -0.3143 -0.2322 0.9205
vn 0.0211 0.2509 0.9678
vn -0.1452 0.0808 0.9861
vn -0.0854 0.0149 0.9962
vn 0.1479 0.4942 0.8567
vn 0.0208 0.3116 0.9500
vn 0.0825 0.2650 0.9607
vn -0.2784 -0.2610 0.9243
vn -0.1942 -0.4913 0.8491
vn -0.1627 -0.4852 0.8591
vn -0.2375 0.9485 -0.2096
vn -0.1335 0.9910 0.0130
vn -0.1140 0.9934 0.0084
vn 0.4881 -0.3277 -0.8089
vn 0.4997 -0.1114 -0.8590
vn 0.5214 -0.0975 -0.8477
vn -0.0133 0.0593 -0.9982
vn -0.1058 -0.1547 -0.9823
vn -0.0651 0.0969 -0.9932
vn -0.0653 -0.9450 -0.3206
vn 0.0634 -0.9827 -0.1741
vn -0.0653 -0.9958 -0.0645
vn 0.2685 -0.2631 0.9266
vn 0.3940 -0.1352 0.9091
vn 0.2685 -0.0047 0.9633
vn 0.0523 0.6694 0.7410
vn 0.1824 0.7436 0.6433
vn 0.0523 0.8386 0.5422
vn 0.0496 0.9380 0.3430
vn -0.0000 1.0000 -0.0000
vn -0.1005 -0.0527 0.9935
vn -0.0397 -0.9991 -0.0159
vn 0.0826 0.1033 0.9912
vn 0.9829 -0.1843 -0.0000
vn -0.9490 0.2076 -0.2373
vn -0.9829 -0.1843 -0.0000
vn -0.0000 -1.0000 -0.0000
vn -0.1331 0.2247 -0.9653
vn 0.9847 -0.1231 -0.1231
vn 0.0661 -0.9155 -0.3967
vn 0.3162 -0.0000 0.9487
vn 0.4937 0.2588 0.8302
vn 0.0729 -0.0286 0.9969
vn 0.0086 -0.0049 1.0000
vn -0.0052 -0.2631 0.9648
vn 0.0297 0.9995 -0.0073
vn -0.0333 0.9990 -0.0287
vn -0.0398 0.9722 0.2307
vn -0.0209 0.9912 0.1305
vn 0.1155 0.5231 0.8444
vn 0.0524 0.5379 0.8414
vn 0.0558 0.4233 0.9043
vn 0.0555 0.9725 -0.2262
vn -0.0062 0.9693 -0.2459
vn -0.0086 0.9999 0.0130
vn 0.0357 -0.3631 -0.9311
vn -0.0248 -0.3827 -0.9235
vn -0.0285 -0.1311 -0.9910
vn -0.0015 -0.9073 0.4206
vn 0.0028 -0.9544 0.2986
vn -0.0337 -0.9994 -0.0000
vn 0.0365 -0.9958 0.0844
vn -0.0245 -0.9947 0.0996
vn -0.0151 -0.9868 -0.1610
vn -0.0592 0.1825 -0.9814
vn -0.1124 -0.0691 -0.9913
vn -0.1680 -0.0269 -0.9854
vn -0.0523 0.9383 -0.3419
vn 0.0690 0.9408 -0.3320
vn 0.0218 0.8303 -0.5569
vn 0.0283 -0.3074 -0.9511
vn -0.0978 -0.3992 -0.9116
vn -0.0978 -0.1483 -0.9841
vn -0.0303 -0.6651 0.7461
vn -0.1568 -0.5746 0.8033
vn -0.1568 -0.7650 0.6247
vn 0.1045 0.5225 0.8462
vn 0.1683 0.4924 0.8539
vn 0.1878 0.5979 0.7792
vn 0.2027 0.7904 0.5781
vn 0.1661 0.8636 0.4760
vn 0.1101 0.8530 0.5101
vn 0.0075 0.9942 0.1071
vn 0.2016 -0.9432 0.2640
vn 0.2371 -0.9431 0.2331
vn 0.2972 -0.8930 0.3379
vn -0.0240 -0.6086 0.7931
vn -0.0788 -0.5087 0.8573
vn -0.1427 -0.5589 0.8168
vn -0.2632 -0.1391 0.9547
vn -0.2889 -0.1151 0.9504
vn -0.2937 -0.3344 0.8955
vn -0.3847 0.8450 -0.3714
vn -0.4028 0.8335 -0.3782
vn -0.3693 0.9135 -0.1708
vn -0.4181 -0.8140 -0.4032
vn -0.4384 -0.8116 -0.3862
vn -0.4153 -0.6995 -0.5815
vn 0.0709 -0.9477 -0.3112
vn -0.0480 -0.9460 -0.3205
vn 0.0218 -0.8422 -0.5388
vn -0.6030 -0.2536 -0.7564
vn -0.0681 -0.9976 -0.0154
vn -0.6385 0.7552 -0.1485
vn -0.0705 -0.3250 0.9431
vn 0.1484 0.9846 0.0926
vn -0.2670 0.9123 -0.3104
vn 0.3699 -0.0000 -0.9291
vn -0.2091 -0.9252 0.3167
vn -0.0791 -0.9777 0.1948
vn -0.0791 -0.8936 0.4419
vn -0.2932 0.3087 0.9049
vn -0.1646 0.1871 0.9685
vn -0.1646 0.4346 0.8855
vn -0.0254 0.9983 0.0520
vn -0.0611 0.9850 0.1613
vn -0.0611 0.9931 -0.0997
vn -0.1844 0.9828 -0.0117
vn 0.0661 0.9155 -0.3967
vn -0.1425 0.0364 0.9891
vn -0.0000 -0.9983 0.0582
vn -0.0861 -0.1077 0.9905
vn -0.9349 -0.2337 0.2671
vn 0.1290 -0.2177 -0.9675
vn 0.9901 0.0990 0.0990
vn 0.7071 -0.0000 0.7071
vn -0.0467 0.9988 -0.0160
vn -0.0347 0.9994 -0.0000
vn -0.0329 -0.9995 -0.0031
vn -0.0835 -0.9688 0.2336
vn -0.0323 0.9993 -0.0197
vn -0.2192 -0.0000 -0.9757
vn -0.0000 -0.0000 1.0000
vn -0.1084 -0.9941 -0.0000
vn -0.0527 -0.9973 -0.0519
vn -0.0000 -0.9522 0.3056
vn -0.1608 -0.7808 0.6037
vn 0.0190 0.7753 0.6314
vn -0.0245 0.9991 -0.0360
vn 0.0067 0.9797 -0.2004
vn -0.0657 0.2102 -0.9754
vt 0.746172 0.244370
vt 0.339599 0.188227
vt 0.481769 0.776134
vt 0.624482 0.845823
vt 0.732429 0.227369
vt 0.956393 0.671274
vt 0.454397 0.951852
vt 0.372043 0.410893
vt 0.854538 0.747922
vt 0.746172 0.019133
vt 0.674709 0.244424
vt 0.410308 0.776134
vt 0.147661 0.258998
vt 0.258097 0.200320
vt 0.410308 0.574135
vt 0.481769 0.858606
vt 0.065989 0.247600
vt 0.481761 0.573296
vt 0.410308 0.858606
vt 0.410928 0.737869
vt 0.520646 0.786265
vt 0.288691 0.029331
vt 0.711462 0.411438
vt 0.178788 0.430231
vt 0.586217 0.847736
vt 0.372043 0.019133
vt 0.411196 0.483222
vt 0.217053 0.299386
vt 0.274604 0.303422
vt 0.290388 0.411996
vt 0.849195 0.629366
vt 0.413924 0.350448
vt 0.606807 0.718761
vt 0.255019 0.427602
vt 0.790103 0.627331
vt 0.473050 0.348826
vt 0.059258 0.019133
vt 0.636444 0.019472
vt 0.019133 0.185549
vt 0.482381 0.519493
vt 0.847781 0.715548
vt 0.241695 0.465867
vt 0.178430 0.468496
vt 0.744804 0.753484
vt 0.520646 0.719592
vt 0.816122 0.743506
vt 0.520646 0.019133
vt 0.272763 0.468239
vt 0.783069 0.747922
vt 0.674709 0.019186
vt 0.178788 0.035745
vt 0.790369 0.712551
vt 0.551236 0.019407
vt 0.688452 0.147745
vt 0.911509 0.408999
vt 0.936788 0.973763
vt 0.732429 0.139471
vt 0.624482 0.757857
vt 0.784437 0.377845
vt 0.021805 0.897038
vt 0.867417 0.408991
vt 0.624482 0.829329
vt 0.732429 0.210888
vt 0.784437 0.377845
vt 0.972857 0.671274
vt 0.184917 0.976336
vt 0.062110 0.885707
vt 0.614658 0.894300
vt 0.898301 0.929618
vt 0.961766 0.627331
vt 0.614408 0.960145
vt 0.140943 0.976336
vt 0.076271 0.821139
vt 0.893216 0.809396
vt 0.454284 0.907867
vt 0.076271 0.904164
vt 0.867417 0.354010
vt 0.892803 0.891352
vt 0.732429 0.155952
vt 0.784437 0.377845
vt 0.023984 0.880719
vt 0.936788 0.929617
vt 0.350745 0.886210
vt 0.658525 0.949333
vt 0.146281 0.932485
vt 0.688452 0.221908
vt 0.313549 0.900980
vt 0.184779 0.932207
vt 0.410308 0.951852
vt 0.892803 0.973763
vt 0.349915 0.822752
vt 0.658525 0.886001
vt 0.911509 0.365014
vt 0.937005 0.883638
vt 0.368800 0.900980
vt 0.937005 0.803534
vt 0.410421 0.896871
vt 0.586217 0.757857
vt 0.097661 0.418555
vt 0.482381 0.737030
vt 0.867417 0.212487
vt 0.425190 0.019660
vt 0.606807 0.387530
vt 0.142836 0.891978
vt 0.907828 0.202232
vt 0.783069 0.962116
vt 0.565292 0.388694
vt 0.272763 0.916162
vt 0.171003 0.742968
vt 0.536338 0.444199
vt 0.962366 0.080208
vt 0.950039 0.358812
vt 0.744592 0.477014
vt 0.543260 0.444048
vt 0.975764 0.709539
vt 0.956038 0.083034
vt 0.785934 0.907025
vt 0.562494 0.443474
vt 0.956393 0.712088
vt 0.217053 0.738515
vt 0.692345 0.482659
vt 0.272763 0.745431
vt 0.538644 0.294344
vt 0.968802 0.019133
vt 0.946478 0.287436
vt 0.569629 0.294226
vt 0.946512 0.044718
vt 0.817963 0.906924
vt 0.594294 0.294202
vt 0.958086 0.744152
vt 0.946093 0.249523
vt 0.949837 0.397680
vt 0.576558 0.294231
vt 0.975764 0.748413
vt 0.940184 0.047545
vt 0.233512 0.917394
vt 0.822338 0.962116
vt 0.600594 0.349227
vt 0.707331 0.791749
vt 0.178788 0.893942
vt 0.461171 0.019133
vt 0.636444 0.349264
vt 0.743117 0.791801
vt 0.700924 0.901976
vt 0.338277 0.939245
vt 0.238240 0.807380
vt 0.178788 0.783955
vt 0.352832 0.980868
vt 0.744804 0.901976
vt 0.907828 0.315745
vt 0.140943 0.781233
vt 0.313549 0.980868
vt 0.272763 0.805569
vt 0.949976 0.361782
vt 0.973523 0.712460
vt 0.952801 0.081282
vt 0.949863 0.369821
vt 0.970223 0.720427
vt 0.946538 0.075355
vt 0.949795 0.378394
vt 0.969097 0.728976
vt 0.942024 0.068009
vt 0.949774 0.386917
vt 0.970223 0.737526
vt 0.939565 0.059745
vt 0.949804 0.394809
vt 0.973523 0.745493
vt 0.939329 0.051125
vt 0.520646 0.932786
vt 0.977490 0.354010
vt 0.744804 0.449703
vt 0.944479 0.055297
vt 0.950371 0.072244
vt 0.576143 0.952460
vt 0.977490 0.410925
vt 0.973785 0.260595
vt 0.178788 0.742968
vt 0.734503 0.478537
vt 0.968802 0.085771
vt 0.232248 0.767304
vt 0.576143 0.886001
vt 0.674709 0.455793
vt 0.973785 0.315745
vt 0.861221 0.556991
vt 0.021848 0.575675
vt 0.101596 0.751219
vt 0.785397 0.559344
vt 0.019133 0.468496
vt 0.851682 0.868659
vt 0.861221 0.449703
vt 0.312131 0.647720
vt 0.101596 0.468569
vt 0.851682 0.786187
vt 0.311028 0.784487
vt 0.101596 0.605944
vt 0.894651 0.644147
vt 0.031270 0.764992
vt 0.892803 0.765269
vt 0.969333 0.211258
vt 0.021805 0.644209
vt 0.101596 0.674384
vt 0.783069 0.482469
vt 0.101555 0.712745
vt 0.783291 0.520936
vt 0.855586 0.588280
vt 0.784437 0.150252
vt 0.368800 0.784487
vt 0.043687 0.605864
vt 0.871876 0.019133
vt 0.095865 0.782874
vt 0.829152 0.202232
vt 0.827275 0.163967
vt 0.810663 0.589066
vt 0.367448 0.465867
vt 0.923718 0.450263
vt 0.050736 0.782083
vt 0.784437 0.202892
vt 0.905646 0.627331
vt 0.311028 0.592555
vt 0.946093 0.197525
vt 0.918128 0.765269
vt 0.367448 0.608808
vt 0.899486 0.584679
vt 0.969333 0.142175
vt 0.090027 0.644862
vt 0.783069 0.853870
vt 0.792932 0.452423
vt 0.923718 0.589066
vt 0.865540 0.155532
vt 0.829152 0.339580
vt 0.807773 0.857371
vt 0.901064 0.155532
vt 0.827275 0.019133
vt 0.345868 0.647073
vt 0.839140 0.820499
vt 0.021905 0.498704
vt 0.858894 0.480116
vt 0.021863 0.537199
vt 0.860999 0.518524
s 0
usemtl Gray6
f 1/1/1 2/5/1 3/10/1
f 2/5/1 1/1/1 4/11/1
f 1/2/2 9/28/2 5/14/2
f 1/2/3 10/29/3 9/28/3
f 1/2/4 11/30/4 10/29/4
f 3/8/5 11/30/5 1/2/5
f 11/30/6 3/8/6 12/34/6
f 3/9/7 15/41/7 12/31/7
f 15/41/8 3/9/8 16/46/8
f 17/49/8 16/46/8 3/9/8
f 16/46/8 17/49/8 18/52/8
f 18/52/8 17/49/8 13/35/8
f 17/50/1 19/54/1 4/11/1
f 17/50/1 20/57/1 19/54/1
f 3/10/1 20/57/1 17/50/1
f 20/57/1 3/10/1 2/5/1
f 20/58/9 2/4/10 21/62/11
f 25/79/1 27/86/1 19/54/1
f 27/86/1 25/79/1 21/63/1
f 20/59/12 21/64/12 25/80/12
f 2/5/1 4/11/1 27/86/1
f 27/86/1 4/11/1 19/54/1
f 48/160/35 51/170/36 49/163/37
f 47/157/38 51/170/39 48/160/40
f 46/154/41 51/170/42 47/157/43
f 49/163/44 54/175/45 50/166/46
f 36/121/47 51/171/48 55/178/49
f 37/122/50 56/180/51 36/120/52
f 9/27/67 13/36/67 14/40/67
f 4/13/68 14/39/68 13/37/68
f 14/40/78 5/15/78 9/27/78
f 15/45/85 34/114/85 35/118/85
f 13/38/97 40/133/97 38/126/97
f 49/164/8 35/119/8 48/161/8
f 51/170/113 46/154/114 34/112/115
f 34/113/116 55/178/117 51/171/118
f 46/156/11 50/168/11 53/173/11
f 54/176/120 37/125/121 40/131/122
f 40/132/123 50/166/124 54/175/125
f 38/127/11 40/135/11 37/124/11
f 55/179/11 34/116/11 33/111/11
f 56/181/8 54/174/8 51/169/8
f 49/163/126 51/170/127 54/175/128
f 36/121/129 56/182/130 51/171/131
f 37/125/132 54/176/133 56/183/134
f 1/3/11 6/19/11 4/12/11
f 9/27/156 12/32/156 13/36/156
f 13/37/157 17/51/157 4/13/157
f 4/13/73 6/17/73 14/39/73
f 14/40/162 6/18/162 5/15/162
f 35/118/163 12/33/163 15/45/163
f 15/45/164 33/110/164 34/114/164
f 38/126/165 18/53/165 13/38/165
f 13/38/166 39/129/166 40/133/166
f 50/167/8 40/134/8 39/130/8
f 35/119/8 34/115/8 46/155/8
f 35/119/8 46/155/8 47/158/8
f 50/167/8 39/130/8 35/119/8
f 49/164/9 50/167/9 35/119/9
f 35/119/8 47/158/8 48/161/8
f 33/111/11 34/116/11 46/156/11
f 46/156/11 47/159/11 48/162/11
f 48/162/11 49/165/11 50/168/11
f 50/168/11 40/135/11 38/127/11
f 50/168/11 38/127/11 52/172/11
f 46/156/11 48/162/11 50/168/11
f 53/173/11 33/111/11 46/156/11
f 50/168/11 52/172/11 53/173/11
f 1/3/11 5/16/11 6/19/11
usemtl WarmGray8
f 1/1/13 8/23/13 4/11/13
f 74/219/56 73/214/57 75/222/58
f 75/223/59 73/215/60 76/228/61
f 76/229/62 72/209/63 77/232/64
f 64/194/65 63/191/65 77/234/65
f 7/22/66 1/2/66 5/14/66
f 30/99/76 4/13/76 8/24/76
f 5/15/77 30/100/77 7/20/77
f 7/21/11 30/98/11 8/25/11
f 72/213/138 57/184/138 71/205/138
f 78/236/139 63/192/139 71/208/139
f 58/186/140 72/210/140 65/197/140
f 65/196/141 74/221/141 66/198/141
f 69/203/142 65/197/142 75/225/142
f 65/197/143 72/210/143 73/216/143
f 75/224/11 66/199/11 74/220/11
f 62/189/11 76/231/11 77/235/11
f 75/227/144 78/237/144 67/202/144
f 76/230/145 73/217/146 72/211/147
f 77/233/148 72/212/149 71/206/150
f 77/234/151 71/207/151 64/194/151
f 69/204/1 78/237/1 79/239/1
f 58/187/1 79/239/1 57/184/1
f 7/22/155 8/26/155 1/2/155
f 30/99/73 6/17/73 4/13/73
f 5/15/77 6/18/77 30/100/77
f 72/213/168 58/187/168 57/184/168
f 57/185/169 79/238/169 78/236/169
f 78/236/170 62/188/170 63/192/170
f 63/192/171 64/195/171 71/208/171
f 71/208/172 57/185/172 78/236/172
f 65/196/173 73/218/173 74/221/173
f 75/225/174 67/201/174 69/203/174
f 69/203/175 58/186/175 65/197/175
f 65/197/176 66/200/176 75/225/176
f 77/235/11 63/193/11 62/189/11
f 62/189/11 75/226/11 76/231/11
f 75/227/177 62/190/177 78/237/177
f 69/204/1 67/202/1 78/237/1
f 58/187/1 69/204/1 79/239/1
usemtl Gray5
f 12/32/14 31/102/15 13/36/16
f 16/48/17 36/120/18 15/42/19
f 18/53/20 37/123/21 16/47/22
f 41/139/23 44/149/24 43/144/25
f 41/136/26 43/146/27 32/108/28
f 31/104/29 44/147/30 42/140/31
f 32/105/32 45/150/33 31/101/34
f 39/128/53 41/137/54 32/106/55
f 23/70/66 21/65/66 2/6/66
f 22/67/66 24/76/66 25/81/66
f 22/68/69 26/84/69 23/71/69
f 22/69/70 19/56/70 28/90/70
f 26/85/71 21/66/71 23/72/71
f 20/61/72 28/93/72 19/55/72
f 29/95/73 27/87/73 26/83/73
f 29/95/73 26/83/73 28/91/73
f 28/94/74 23/74/74 29/96/74
f 27/89/75 23/75/75 2/7/75
f 13/36/79 31/102/80 42/141/81
f 12/33/82 32/107/83 31/103/84
f 15/43/86 55/177/87 33/109/88
f 15/44/89 36/121/90 55/178/91
f 16/48/92 37/122/93 36/120/94
f 18/53/95 38/126/95 37/123/96
f 13/38/98 42/142/99 41/138/100
f 35/117/101 39/128/102 32/106/103
f 32/107/104 12/33/105 35/118/106
f 31/104/107 45/151/108 44/147/109
f 32/108/110 43/146/111 45/153/112
f 13/38/135 41/138/136 39/129/137
f 41/139/152 42/143/153 44/149/154
f 22/67/66 23/73/66 24/76/66
f 24/76/66 20/60/66 25/81/66
f 22/68/158 28/92/158 26/84/158
f 22/69/70 25/82/70 19/56/70
f 26/85/159 27/88/159 21/66/159
f 20/61/72 24/77/72 28/93/72
f 28/94/160 24/78/160 23/74/160
f 27/89/161 29/97/161 23/75/161
usemtl Gray8
f 45/152/8 43/145/8 44/148/8
f 12/34/119 10/29/119 11/30/119
f 12/34/167 9/28/167 10/29/167
l 59 57
l 69 70
l 61 78
l 67 68
l 60 79
